<?xml version="1.0" standalone="no"?>
<!DOCTYPE svg PUBLIC "-//W3C//DTD SVG 1.1//EN" "http://www.w3.org/Graphics/SVG/1.1/DTD/svg11.dtd" >
<svg xmlns="http://www.w3.org/2000/svg">
<metadata>Generated by IcoMoon</metadata>
<defs>
<font id="icomoon" horiz-adv-x="1024">
<font-face units-per-em="1024" ascent="960" descent="-64" />
<missing-glyph horiz-adv-x="1024" />
<glyph unicode="&#x20;" horiz-adv-x="512" d="" />
<glyph unicode="&#xe900;" glyph-name="1" horiz-adv-x="1092" d="M284.425 145.459c-72.865 0-137.674 47.708-161.204 118.736l-1.593 5.352c-5.552 18.804-7.874 34.632-7.874 50.456v317.346l-110.413-376.926c-14.2-55.436 18.159-112.916 72.455-128.232l703.754-192.744c8.786-2.328 17.568-3.444 26.218-3.444 45.329 0 86.746 30.768 98.352 76.1l41.004 133.356h-660.7zM409.583 634.185c50.2 0 91.027 41.752 91.027 93.091s-40.827 93.091-91.027 93.091c-50.2 0-91.024-41.751-91.024-93.091s40.824-93.091 91.024-93.091zM978.487 960h-682.684c-62.716 0-113.781-52.224-113.781-116.364v-512c0-64.14 51.065-116.364 113.781-116.364h682.684c62.717 0 113.78 52.224 113.78 116.364v512c0 64.14-51.063 116.364-113.78 116.364zM295.803 866.909h682.684c12.561 0 22.757-10.426 22.757-23.273v-330.425l-143.773 171.565c-15.247 18.292-37.321 28.067-61.034 28.625-23.576-0.14-45.694-10.845-60.805-29.37l-169.032-207.5-55.071 56.18c-31.13 31.836-81.783 31.836-112.869 0l-125.614-128.42v439.344c0 12.846 10.195 23.273 22.756 23.273z" />
<glyph unicode="&#xe901;" glyph-name="2" horiz-adv-x="1092" d="M1073.886 260.222c-12.24 12.247-27.129 18.377-44.626 18.377h-304.585l-89.269-89.269c-25.385-24.501-55.139-36.758-89.272-36.758-34.127 0-63.891 12.24-89.272 36.758l-88.614 89.269h-305.233c-17.501 0-32.379-6.137-44.635-18.377-12.254-12.25-18.379-27.133-18.379-44.643v-210.046c0-17.504 6.125-32.382 18.379-44.633s27.132-18.371 44.635-18.371h966.245c17.497 0 32.386 6.12 44.626 18.371 12.261 12.25 18.381 27.129 18.381 44.633v210.046c0 17.51-6.12 32.393-18.381 44.643zM827.744 39.011c-8.325-8.315-18.173-12.469-29.553-12.469-11.377 0-21.214 4.154-29.536 12.469-8.308 8.318-12.465 18.159-12.465 29.532 0 11.377 4.157 21.234 12.465 29.536 8.322 8.322 18.159 12.486 29.536 12.486 11.38 0 21.228-4.164 29.553-12.486 8.308-8.298 12.465-18.159 12.465-29.536 0-11.37-4.157-21.214-12.465-29.532zM995.775 39.011c-8.308-8.315-18.159-12.469-29.539-12.469-11.377 0-21.221 4.154-29.539 12.469-8.305 8.318-12.459 18.159-12.459 29.532 0 11.377 4.154 21.234 12.459 29.536 8.318 8.322 18.159 12.486 29.539 12.486 11.377 0 21.228-4.164 29.539-12.486 8.315-8.298 12.476-18.159 12.476-29.536 0-11.37-4.154-21.214-12.476-29.532zM516.591 249.068c7.881-8.308 17.729-12.462 29.539-12.462 11.82 0 21.654 4.154 29.536 12.462l294.076 294.079c13.561 12.687 16.633 28.006 9.189 45.95-7.424 17.060-20.34 25.593-38.724 25.6h-168.049v294.074c0 11.376-4.161 21.223-12.462 29.537-8.322 8.316-18.166 12.475-29.536 12.475h-168.059c-11.37 0-21.217-4.159-29.536-12.475-8.311-8.314-12.472-18.159-12.472-29.537v-294.074h-168.040c-18.389 0-31.291-8.544-38.731-25.603-7.435-17.937-4.375-33.263 9.194-45.95l294.076-294.076z" />
<glyph unicode="&#xe902;" glyph-name="3" horiz-adv-x="931" d="M664.201 565.859c16.918 34.589 46.244 60.596 82.711 73.151 15.258 5.266 30.984 7.286 46.639 7.357v205.421c0 59.66-48.55 108.211-108.212 108.211h-577.127c-59.66 0-108.211-48.551-108.211-108.211v-721.409c0-59.662 48.551-108.212 108.211-108.212h358.866l-3.897 11.326c-15.689 45.773-12.623 94.686 8.549 137.933l192.472 394.432zM144.282 743.577h432.844c19.949 0 36.073-16.16 36.073-36.071s-16.123-36.071-36.073-36.071h-432.844c-19.947 0-36.071 16.16-36.071 36.071s16.124 36.071 36.071 36.071zM144.282 599.294h396.775c19.946 0 36.070-16.157 36.070-36.070s-16.123-36.070-36.070-36.070h-396.775c-19.947 0-36.071 16.157-36.071 36.070s16.124 36.070 36.071 36.070zM396.775 238.592h-252.493c-19.947 0-36.071 16.157-36.071 36.070 0 19.909 16.124 36.070 36.071 36.070h252.493c19.946 0 36.070-16.161 36.070-36.070 0-19.912-16.123-36.070-36.070-36.070zM144.282 382.874c-19.947 0-36.071 16.157-36.071 36.070s16.124 36.070 36.071 36.070h324.636c19.946 0 36.070-16.157 36.070-36.070s-16.123-36.070-36.070-36.070h-324.636zM923.549 439.324l-192.543-394.575c-12.735-26.006-34.773-45.484-62.079-54.865l-68.208-23.446c-3.86-1.334-7.863-1.983-11.723-1.983-14.969 0-28.967 9.377-34.087 24.349l-23.484 68.208c-9.415 27.412-7.574 56.776 5.123 82.708l192.543 394.504c8.406 17.315 23.124 30.298 41.339 36.575 18.178 6.277 37.764 5.123 55.079-3.392l64.856-31.632c17.312-8.44 30.298-23.158 36.575-41.373 6.274-18.215 5.086-37.767-3.392-55.079z" />
<glyph unicode="&#xe903;" glyph-name="4" d="M530.070 192.843l-258.289-256.843h-199.499c-19.171 0-37.556 7.615-51.111 21.169-13.556 13.558-21.171 31.942-21.171 51.111v89.149l296.358 293.949c4.504 4.413 10.559 6.888 16.866 6.888s12.362-2.475 16.866-6.888l199.981-198.537zM602.354 562.446c-14.298 0-28.273-4.239-40.158-12.179-11.889-7.943-21.152-19.234-26.624-32.44-5.472-13.21-6.902-27.744-4.113-41.762 2.789-14.022 9.673-26.904 19.784-37.011 10.107-10.11 22.985-16.995 37.007-19.784s28.556-1.355 41.762 4.113c13.21 5.472 24.497 14.735 32.44 26.624 7.943 11.885 12.182 25.863 12.182 40.158 0 19.169-7.615 37.557-21.169 51.111-13.558 13.554-31.942 21.169-51.111 21.169zM1011.954 682.918v-497.785l-192.754 192.754c-13.732 13.193-32.038 20.562-51.081 20.562s-37.345-7.369-51.077-20.562l-152.757-152.757-199.984 200.462c-13.732 13.193-32.035 20.562-51.078 20.562s-37.347-7.369-51.080-20.562l-262.144-260.215v517.542c0 19.171 7.615 37.556 21.171 51.112s31.941 21.171 51.111 21.171h213.956l147.457 132.518c0 19.171 7.615 37.556 21.169 51.111 13.558 13.556 31.942 21.171 51.111 21.171 19.173 0 37.557-7.615 51.111-21.171 13.558-13.556 21.173-31.941 21.173-51.111l130.591-132.518h230.82c19.169 0 37.557-7.615 51.111-21.171s21.173-31.941 21.173-51.112zM640.423 755.2l-77.104 77.101c-6.659-9.159-15.394-16.612-25.484-21.75-10.093-5.139-21.258-7.818-32.58-7.818-11.325 0-22.49 2.679-32.584 7.818-10.090 5.139-18.825 12.592-25.484 21.75l-88.668-77.101h281.904zM722.825 490.165c0 23.825-7.066 47.118-20.303 66.929-13.24 19.811-32.055 35.253-54.067 44.37-22.013 9.12-46.237 11.506-69.605 6.857s-44.834-16.121-61.682-32.969c-16.848-16.848-28.324-38.315-32.969-61.686-4.649-23.368-2.263-47.589 6.854-69.605 9.117-22.013 24.559-40.827 44.37-54.064s43.104-20.303 66.932-20.303c31.949 0 62.59 12.691 85.183 35.284s35.287 53.234 35.287 85.187zM750.292 343.19l-410.083-407.19h599.461c19.169 0 37.557 7.615 51.111 21.169 13.554 13.558 21.173 31.942 21.173 51.111v108.906l-227.932 226.004c-4.502 4.413-10.557 6.888-16.865 6.888s-12.363-2.475-16.865-6.888z" />
<glyph unicode="&#xe904;" glyph-name="5" horiz-adv-x="1229" d="M1179.984 568.929c-8.524 18.858-18.006 37.265-28.418 55.151l-134.095-364.259c-5.112-13.611-12.55-26.227-21.979-37.294 35.992 3.564 70.676 15.393 101.351 34.562 30.671 19.173 56.5 45.171 75.473 75.964 18.973 30.798 30.577 65.556 33.907 101.577 3.33 36.016-1.704 72.315-14.709 106.066-3.572 9.613-7.406 18.962-11.53 28.232zM410.341 897.21c-78.247-27.852-150.068-71.206-211.166-127.466s-110.215-124.269-144.413-199.956c-34.198-75.687-52.772-157.496-54.612-240.53s13.094-165.589 43.907-242.717c0.814-1.655 1.366-3.281 2.18-4.936 16.37-39.092 43.021-73.019 77.124-98.185 34.102-25.162 74.383-40.62 116.565-44.728s84.688 3.281 123.007 21.389c38.318 18.104 71.017 46.252 94.627 81.449 49.377 74.375 120.259 131.928 203.19 164.979 2.626 1.053 5.255 1.839 7.881 2.81 9.335 21.541 23.233 40.804 40.727 56.459 17.498 15.655 38.179 27.333 60.621 34.226-0.549 19.78 3.506 39.412 11.842 57.356l207.475 449.271c-81.494 61.778-177.037 102.388-278.073 118.195-101.032 15.807-204.411 6.319-300.88-27.616zM249.351 211.759c-20.777 0-41.087 6.164-58.363 17.707s-30.74 27.947-38.69 47.145c-7.951 19.194-10.032 40.317-5.978 60.695s14.058 39.096 28.75 53.785c14.692 14.692 33.409 24.699 53.787 28.75 20.378 4.055 41.5 1.974 60.695-5.976s35.602-21.414 47.145-38.691c11.543-17.277 17.704-37.585 17.704-58.364 0-27.861-11.067-54.579-30.768-74.281-19.701-19.698-46.421-30.769-74.281-30.769zM380.663 513.778c-20.777 0-41.087 6.16-58.363 17.707-17.275 11.543-30.74 27.947-38.691 47.143s-10.031 40.317-5.978 60.695c4.053 20.378 14.058 39.096 28.75 53.787s33.409 24.696 53.787 28.75c20.378 4.053 41.499 1.973 60.695-5.978 19.194-7.951 35.602-21.416 47.145-38.691s17.703-37.585 17.703-58.362c0-27.861-11.067-54.581-30.769-74.281-19.698-19.702-46.419-30.769-74.279-30.769zM695.812 605.697c-20.779 0-41.087 6.161-58.364 17.704-17.273 11.543-30.74 27.949-38.691 47.145s-10.031 40.317-5.976 60.695c4.051 20.378 14.057 39.096 28.75 53.787s33.411 24.696 53.789 28.75c20.378 4.053 41.497 1.973 60.695-5.978 19.194-7.951 35.598-21.416 47.145-38.691 11.543-17.275 17.703-37.585 17.703-58.362 0-27.861-11.067-54.58-30.769-74.281s-46.42-30.768-74.281-30.768zM1167.958 956.268c-11.653 4.84-24.728 4.978-36.479 0.385s-21.271-13.56-26.55-25.019l-275.337-596.286c-6.341-13.718-8.389-29.028-5.882-43.93s9.454-28.701 19.931-39.588c-25.592 6.005-52.49 2.724-75.887-9.257-23.4-11.985-41.787-31.887-51.88-56.16-42.516-102.687 24.74-147.726-17.805-250.413 48.505 5.419 94.708 23.581 133.915 52.642s70.025 67.981 89.317 112.812c9.081 22.073 10.793 46.494 4.878 69.62s-19.141 43.721-37.708 58.724c16.794-2.167 33.821 1.43 48.308 10.191 14.483 8.761 25.571 22.176 31.453 38.052l226.906 616.405c4.309 11.822 3.887 24.851-1.18 36.369-5.063 11.518-14.377 20.637-26.001 25.453z" />
<glyph unicode="&#xe905;" glyph-name="6" horiz-adv-x="1061" d="M711.76 658.815c-36.835 171.088-115.394 279.328-188.054 279.328s-151.223-108.24-188.059-279.328h376.113zM314.214 449.317c-0.009-46.709 3.106-93.367 9.322-139.663h400.347c6.217 46.296 9.329 92.954 9.322 139.663 0.007 46.713-3.105 93.371-9.322 139.666h-400.347c-6.217-46.296-9.331-92.954-9.322-139.666zM335.647 239.821c36.836-171.088 115.399-279.329 188.059-279.329s151.219 108.24 188.054 279.329h-376.113zM783.272 658.815h219.97c-33.050 75.217-83.269 141.642-146.626 193.946-63.36 52.304-138.094 89.033-218.211 107.239 66.238-58.275 118.192-166.026 144.867-301.185zM1028.334 588.983h-233.936c5.76-46.332 8.638-92.976 8.624-139.666 0.004-46.687-2.889-93.33-8.66-139.663h233.936c25.465 91.37 25.501 187.959 0.037 279.329zM638.405-61.363c80.128 18.194 154.876 54.919 218.247 107.224s113.602 118.736 146.659 193.96h-219.97c-26.745-135.161-78.698-242.911-144.936-301.184zM264.136 239.821h-219.971c33.058-75.224 83.288-141.656 146.659-193.96s138.12-89.029 218.25-107.224c-66.307 58.273-118.262 166.023-144.938 301.184zM409 960c-80.128-18.196-154.877-54.92-218.248-107.225s-113.601-118.735-146.659-193.96h219.971c26.746 135.16 78.701 242.91 144.936 301.185zM244.375 449.317c-0.004 46.691 2.888 93.334 8.659 139.666h-233.937c-25.463-91.37-25.463-187.959 0-279.329h233.937c-5.772 46.332-8.664 92.976-8.659 139.663z" />
<glyph unicode="&#xe906;" glyph-name="7" horiz-adv-x="1451" d="M824.077 90.249c-33.324-33.323-33.324-87.356 0-120.678 33.327-33.323 87.351-33.323 120.683 0l422.374 422.379c33.323 33.324 33.323 87.355 0 120.679l-422.374 422.378c-33.331 33.325-87.356 33.325-120.683 0-33.324-33.325-33.324-87.355 0-120.68l276.194-276.192h-1014.938c-47.128 0-85.333-38.205-85.333-85.333s38.205-85.333 85.333-85.333h1015.962l-277.218-277.219z" />
<glyph unicode="&#xe907;" glyph-name="8" d="M512 960c40.396 0 73.143-32.747 73.143-73.143v-877.714c0-40.396-32.747-73.143-73.143-73.143s-73.143 32.747-73.143 73.143v877.714c0 40.396 32.747 73.143 73.143 73.143zM1024 448c0-40.396-32.747-73.143-73.143-73.143h-877.714c-40.396 0-73.143 32.747-73.143 73.143s32.747 73.143 73.143 73.143h877.714c40.396 0 73.143-32.747 73.143-73.143z" />
<glyph unicode="&#xe908;" glyph-name="9" horiz-adv-x="7168" d="M7168 448c0-282.77-229.23-512-512-512h-6144c-282.77 0-512 229.23-512 512s229.23 512 512 512h6144c282.77 0 512-229.23 512-512z" />
<glyph unicode="&#xe909;" glyph-name="10" horiz-adv-x="896" d="M859.755 506.935l-714.139 439.224c-12.876 7.846-27.947 12.547-43.636 13.609s-31.42-1.551-45.544-7.568c-15.617-7.062-28.957-17.39-38.811-30.049s-15.911-27.25-17.624-42.451v-845.828c1.535-17.694 7.354-34.91 17.078-50.526s23.134-29.278 39.357-40.098c12.251-4.826 25.56-7.3 39.016-7.249 17.953 0.149 35.437 4.992 50.164 13.897l714.139 439.228c11.375 6.647 20.646 15.659 26.974 26.214 6.327 10.551 9.51 22.306 9.259 34.202 0.128 11.87-3.11 23.59-9.425 34.125-6.319 10.534-15.522 19.563-26.807 26.291v-3.021z" />
<glyph unicode="&#xe90a;" glyph-name="11" horiz-adv-x="2327" d="M413.864 37.342c37.236-38.17 103.331-62.374 141.498-25.137 17.733 27.814 27.154 60.111 27.154 93.094s-9.421 65.28-27.154 93.091l-186.182 186.182h1863.68c24.688 0 48.37 9.808 65.825 27.265s27.266 41.136 27.266 65.826c0 24.69-9.812 48.367-27.266 65.826s-41.137 27.265-65.825 27.265h-1861.818l186.182 186.182c17.733 27.811 27.154 60.108 27.154 93.091s-9.421 65.28-27.154 93.091c-40.029 37.236-106.124 6.516-143.36-30.72l-386.327-371.433c-8.725-8.654-15.651-18.95-20.377-30.294s-7.159-23.512-7.159-35.801c0-12.289 2.433-24.457 7.159-35.801s11.652-21.64 20.377-30.294l386.327-371.433z" />
<glyph unicode="&#xe90b;" glyph-name="12" horiz-adv-x="2327" d="M1912.134 37.342c-37.236-38.17-103.331-62.374-141.498-25.137-17.734 27.814-27.155 60.111-27.155 93.094s9.421 65.28 27.155 93.091l186.182 186.182h-1863.677c-24.689 0-48.367 9.808-65.825 27.265s-27.266 41.136-27.266 65.826c0 24.69 9.808 48.367 27.266 65.826s41.136 27.265 65.825 27.265h1861.815l-186.182 186.182c-17.734 27.811-27.155 60.108-27.155 93.091s9.421 65.28 27.155 93.091c40.029 37.236 106.124 6.516 143.36-30.72l386.327-371.433c8.732-8.654 15.658-18.95 20.378-30.294 4.729-11.344 7.159-23.512 7.159-35.801s-2.43-24.457-7.159-35.801c-4.72-11.344-11.646-21.64-20.378-30.294l-386.327-371.433z" />
<glyph unicode="&#xe90c;" glyph-name="13" d="M529.121 943.151l128.631-317.253 329.294-29.212c5.042-0.441 9.842-2.44 13.812-5.748s6.927-7.778 8.505-12.851c1.578-5.074 1.705-10.526 0.367-15.676s-4.084-9.768-7.891-13.28l-249.543-225.543 74.601-335.595c1.138-5.222 0.789-10.686-1.006-15.697-1.795-5.018-4.951-9.361-9.077-12.481s-9.029-4.885-14.101-5.072c-5.072-0.181-10.083 1.223-14.402 4.042l-282.987 177.983-282.987-177.983c-4.318-2.819-9.328-4.222-14.4-4.042-5.072 0.187-9.979 1.952-14.104 5.072s-7.284 7.463-9.078 12.481c-1.794 5.012-2.145 10.475-1.007 15.697l73.32 335.595-248.257 225.543c-3.809 3.512-6.554 8.131-7.892 13.28s-1.21 10.602 0.368 15.676c1.578 5.073 4.537 9.543 8.506 12.851s8.773 5.307 13.811 5.748l329.294 29.212 128.631 317.253c1.938 4.984 5.236 9.247 9.473 12.247s9.223 4.602 14.324 4.602c5.101 0 10.087-1.602 14.324-4.602s7.534-7.263 9.473-12.247z" />
<glyph unicode="&#xe90d;" glyph-name="14" horiz-adv-x="1451" d="M824.077 85.461c-33.324-33.331-33.324-87.356 0-120.687 33.327-33.323 87.351-33.323 120.683 0l422.374 422.382c33.323 33.325 33.323 87.355 0 120.68l-422.374 422.378c-33.331 33.325-87.356 33.325-120.683 0-33.324-33.325-33.324-87.354 0-120.68l276.194-276.193h-1014.938c-47.128 0-85.333-38.205-85.333-85.333s38.205-85.333 85.333-85.333h1015.962l-277.218-277.214z" />
<glyph unicode="&#xe90e;" glyph-name="15" d="M888.47 960h-752.941c-74.853 0-135.529-60.676-135.529-135.529v-752.941c0-74.854 60.676-135.53 135.529-135.53h752.941c74.854 0 135.53 60.675 135.53 135.53v752.941c0 74.853-60.675 135.529-135.53 135.529zM911.060 146.825c0-54.060-43.824-97.884-97.884-97.884h-602.352c-54.059 0-97.882 43.824-97.882 97.884v602.352c0 54.059 43.824 97.882 97.882 97.882h602.352c54.060 0 97.884-43.824 97.884-97.882v-602.352zM421.318 421.656h82.821l-41.411 142.042-41.411-142.042zM813.175 801.892h-602.353c-29.117 0-52.706-23.588-52.706-52.706v-602.354c0-29.102 23.589-52.705 52.706-52.705h602.353c29.102 0 52.705 23.603 52.705 52.705v602.354c0 29.118-23.603 52.706-52.705 52.706zM545.956 317.877c-7.045 0-12.838 1.587-14.913 8.219l-16.971 57.914h-102.294l-16.971-57.914c-2.072-6.632-7.868-8.66-15.322-8.66-12.015 0-27.337 7.677-27.337 18.456-0.058 1.294 0.072 2.587 0.41 3.837l82.412 268.397c3.311 9.943 15.326 14.942 27.75 14.942 12.414 0 24.839-4.954 28.163-14.897l81.985-268.339c0.485-1.191 0.765-2.454 0.84-3.734 0-10.353-15.326-18.22-27.75-18.22zM651.295 332.377c0-9.53-11.414-14.5-22.589-14.5-10.766 0-22.589 4.97-22.589 14.5v274.132c0 9.926 11.824 14.075 22.589 14.075 11.175 0 22.589-4.149 22.589-14.075v-274.132z" />
<glyph unicode="&#xe90f;" glyph-name="16" horiz-adv-x="1195" d="M1183.307 808.647c0 40.122-15.961 78.649-44.305 107.048-28.399 28.344-66.925 44.305-107.046 44.305-210.906 0-669.699 0-880.603 0-40.122 0-78.649-15.961-107.048-44.305-28.344-28.399-44.305-66.926-44.305-107.048v-550.377c0-83.603 67.751-151.354 151.353-151.354h55.038c7.595 0 13.759-6.164 13.759-13.759v-50.579c0-37.041 21.245-70.779 54.597-86.849 33.353-16.015 72.979-11.503 101.876 11.612l170.725 136.55c2.423 1.98 5.448 3.024 8.588 3.024h476.020c40.12 0 78.647 15.961 107.046 44.305 28.344 28.402 44.305 66.929 44.305 107.049v550.377zM650.766 403.736c-18.657 22.675-36.71 62.3-31.041 131.54 9.134 112.276 130.987 165.112 130.987 165.112l22.402-34.123c0 0-68.577-37.040-62.413-122.35 4.127 0.553 8.257 0.826 12.493 0.826 49.203 0 89.163-39.902 89.163-89.105 0-49.149-39.96-89.105-89.163-89.105-13.097 0-25.593 2.86-36.874 7.98-0.164 0-26.747 14.749-35.553 29.225zM403.094 403.736c-18.657 22.675-36.71 62.3-31.041 131.54 9.137 112.276 130.99 165.112 130.99 165.112l22.402-34.123c0 0-68.577-37.040-62.413-122.35 4.127 0.553 8.253 0.826 12.493 0.826 49.203 0 89.16-39.902 89.16-89.105 0-49.149-39.956-89.105-89.16-89.105-13.1 0-25.593 2.86-36.874 7.98-0.167 0-26.75 14.749-35.557 29.225z" />
<glyph unicode="&#xe910;" glyph-name="17" d="M512 960c-282.76 0-512-229.24-512-512s229.24-512 512-512c282.761 0 512 229.239 512 512s-229.239 512-512 512zM265.38 448.358c-20.98 0.601-34 16.002-33.14 39.421 3.12 87.439 66.76 157.261 153.46 168.001 10.004 1.266 20.077 1.934 30.16 2 54.822 0.2 109.64 0.1 166.499 0.1 0 11.76 0 22.16 0 32.58 0 16 6.642 27.62 21.562 34.14s28.18 3.14 39.458-8c22.422-22.14 44.78-44.36 66.802-66.88 15.739-16.1 15.797-37 0.099-53.059-21.999-22.542-44.401-44.721-66.782-66.881-11.179-11.059-24.439-15.261-39.417-8.96-14.981 6.301-21.521 18.34-21.681 34.202-0.119 10.479 0 20.958 0 32.819-4.639 0.198-8.742 0.539-12.841 0.539-53.651 0-107.319 0-161 0-59.839 0-104.799-43.66-107.039-103.499-0.9-23.241-14.62-37.161-36.14-36.523zM638.979 240.36c-11.172-1.297-22.412-1.963-33.659-2-53.999-0.218-108.001-0.099-163.761-0.099 0-12.5 0.16-23.32 0-34.161-0.3-14.94-6.919-25.999-20.818-32.239-14.421-6.601-27.641-4.383-38.68 6.38-23.702 23.060-47.201 46.339-70.001 70.199-13.78 14.38-13.52 35.14 0.4 49.582 22.68 23.518 46.001 46.537 69.26 69.379 10.899 10.66 24.241 13.998 38.618 7.779 14.38-6.219 21.002-17.999 21.303-33.321 0.218-10.82 0-21.658 0-34.161h171.998c62.362 0 106.441 42.581 109.001 105.103 0.901 21.579 14.739 35.318 35.338 35.038 20.603-0.28 34.161-14.998 34-36.359-0.86-87.282-66.717-161.099-152.999-171.182v0.061z" />
<glyph unicode="&#xe911;" glyph-name="18" horiz-adv-x="990" d="M683.185 554.592c17.401 35.581 47.565 62.331 85.074 75.242 15.695 5.417 31.87 7.495 47.971 7.569v211.293c0 61.366-49.937 111.304-111.302 111.304h-593.624c-61.366 0-111.304-49.938-111.304-111.304v-742.029c0-61.365 49.938-111.305 111.304-111.305h369.122l-4.007 11.65c-16.138 47.084-12.984 97.393 8.793 141.879l197.973 405.702zM148.406 737.391h445.217c20.518 0 37.103-16.622 37.103-37.102s-16.585-37.101-37.103-37.101h-445.217c-20.517 0-37.102 16.621-37.102 37.101s16.584 37.102 37.102 37.102zM148.406 588.984h408.114c20.518 0 37.103-16.62 37.103-37.1s-16.585-37.103-37.103-37.103h-408.114c-20.517 0-37.102 16.623-37.102 37.103s16.584 37.1 37.102 37.1zM408.115 217.972h-259.709c-20.517 0-37.102 16.62-37.102 37.1s16.584 37.103 37.102 37.103h259.709c20.518 0 37.103-16.623 37.103-37.103s-16.585-37.1-37.103-37.1zM148.406 366.377c-20.517 0-37.102 16.623-37.102 37.103s16.584 37.1 37.102 37.1h333.912c20.518 0 37.103-16.62 37.103-37.1s-16.585-37.103-37.103-37.103h-333.912zM949.944 424.441l-198.045-405.852c-13.097-26.75-35.768-46.787-63.853-56.433l-70.158-24.115c-3.97-1.372-8.090-2.041-12.059-2.041-15.398 0-29.792 9.646-35.062 25.044l-24.153 70.158c-9.684 28.198-7.789 58.399 5.27 85.074l198.048 405.78c8.643 17.807 23.781 31.164 42.516 37.618 18.698 6.458 38.844 5.27 56.655-3.485l66.707-32.539c17.811-8.68 31.167-23.818 37.622-42.554s5.233-38.847-3.488-56.655z" />
<glyph unicode="&#xe912;" glyph-name="19" horiz-adv-x="1152" d="M0 447.709c0 0 318.4-300.209 398-511.716 56.857 170.573 327.498 710.716 735.734 1018.881-177.965-27.291-602.12-306.46-735.734-646.465-64.475 111.254-151.185 208.029-254.72 284.285-34.903-8.659-66.743-26.774-92.020-52.352s-43.014-57.631-51.26-92.634z" />
<glyph unicode="&#xe913;" glyph-name="20" horiz-adv-x="953" d="M803.745 893.591h-40.045v33.204c0 8.806-3.499 17.252-9.724 23.479-6.229 6.227-14.671 9.725-23.478 9.725s-17.253-3.498-23.481-9.725c-6.225-6.227-9.724-14.673-9.724-23.479v-33.204h-199.224v33.204c0 8.806-3.499 17.252-9.728 23.479-6.225 6.227-14.671 9.725-23.478 9.725s-17.253-3.498-23.478-9.725c-6.229-6.227-9.728-14.673-9.728-23.479v-33.204h-199.224v33.204c0 8.806-3.498 17.252-9.725 23.479s-14.673 9.725-23.479 9.725c-8.806 0-17.252-3.498-23.479-9.725s-9.725-14.673-9.725-23.479v-33.204h-40.044c-33.395-0.053-65.407-13.342-89.021-36.956s-36.903-55.626-36.956-89.021v-677.767c0.053-33.397 13.342-65.409 36.956-89.021 23.614-23.616 55.626-36.903 89.021-36.956h677.767c33.393 0.053 65.405 13.34 89.021 36.956 23.612 23.612 36.903 55.624 36.956 89.021v677.767c-0.053 33.395-13.344 65.407-36.956 89.021-23.616 23.614-55.628 36.903-89.021 36.956zM388.689 305.643l-99.612-99.614c-6.227-6.225-14.671-9.721-23.475-9.721s-17.249 3.496-23.476 9.721l-66.409 66.408c-3.171 3.065-5.701 6.727-7.441 10.78-1.74 4.050-2.656 8.407-2.695 12.814-0.038 4.41 0.802 8.782 2.471 12.864s4.135 7.789 7.252 10.904c3.118 3.118 6.825 5.586 10.906 7.253 4.080 1.67 8.453 2.511 12.862 2.472 4.409-0.035 8.766-0.953 12.817-2.694s7.715-4.269 10.778-7.44l42.966-42.934 76.138 76.136c6.262 6.049 14.65 9.396 23.354 9.322 8.708-0.078 17.037-3.57 23.192-9.724 6.158-6.158 9.65-14.484 9.724-23.192 0.074-8.704-3.305-17.094-9.354-23.354zM388.689 604.481l-99.612-99.614c-6.227-6.225-14.671-9.721-23.475-9.721s-17.249 3.496-23.476 9.721l-66.409 66.408c-3.171 3.065-5.701 6.727-7.441 10.78-1.74 4.050-2.656 8.407-2.695 12.818-0.038 4.407 0.802 8.778 2.471 12.86 1.669 4.080 4.135 7.788 7.252 10.906s6.825 5.583 10.906 7.253c4.080 1.669 8.453 2.51 12.862 2.471s8.766-0.954 12.817-2.695c4.051-1.74 7.715-4.27 10.778-7.441l42.966-42.934 76.138 76.138c6.262 6.049 14.65 9.395 23.354 9.32 8.708-0.076 17.037-3.568 23.192-9.724 6.158-6.156 9.65-14.485 9.724-23.191s-3.305-17.093-9.354-23.356zM730.497 229.503h-232.43c-8.806 0-17.253 3.499-23.481 9.728-6.225 6.225-9.724 14.671-9.724 23.478s3.499 17.253 9.724 23.478c6.229 6.229 14.675 9.728 23.481 9.728h232.43c8.806 0 17.249-3.499 23.478-9.728 6.225-6.225 9.724-14.671 9.724-23.478s-3.499-17.253-9.724-23.478c-6.229-6.229-14.671-9.728-23.478-9.728zM730.497 528.345h-232.43c-8.806 0-17.253 3.496-23.481 9.724-6.225 6.225-9.724 14.671-9.724 23.478s3.499 17.253 9.724 23.478c6.229 6.229 14.675 9.728 23.481 9.728h232.43c8.806 0 17.249-3.499 23.478-9.728 6.225-6.225 9.724-14.671 9.724-23.478s-3.499-17.253-9.724-23.478c-6.229-6.229-14.671-9.724-23.478-9.724z" />
<glyph unicode="&#xe914;" glyph-name="21" horiz-adv-x="1061" d="M711.757 658.815c-36.835 171.088-115.397 279.328-188.058 279.328s-151.219-108.24-188.057-279.328h376.114zM314.214 449.317c-0.009-46.709 3.106-93.367 9.322-139.663h400.347c6.217 46.296 9.329 92.954 9.322 139.663 0.007 46.713-3.105 93.371-9.322 139.666h-400.347c-6.217-46.296-9.331-92.954-9.322-139.666zM335.643 239.821c36.837-171.088 115.396-279.329 188.057-279.329s151.223 108.24 188.058 279.329h-376.114zM783.276 658.815h219.973c-33.053 75.217-83.273 141.642-146.629 193.946-63.36 52.304-138.094 89.033-218.211 107.239 66.238-58.275 118.192-166.026 144.867-301.185zM1028.33 588.983h-233.936c5.76-46.332 8.638-92.976 8.624-139.666 0.004-46.687-2.889-93.33-8.66-139.663h233.936c25.465 91.37 25.498 187.959 0.037 279.329zM638.409-61.363c80.132 18.194 154.88 54.919 218.251 107.224s113.598 118.736 146.659 193.96h-219.973c-26.745-135.161-78.698-242.911-144.936-301.184zM264.131 239.821h-219.971c33.058-75.224 83.288-141.656 146.659-193.96s138.119-89.029 218.247-107.224c-66.304 58.273-118.259 166.023-144.935 301.184zM408.997 960c-80.129-18.196-154.877-54.92-218.248-107.225s-113.601-118.735-146.659-193.96h219.971c26.745 135.16 78.701 242.91 144.937 301.185zM244.375 449.317c-0.004 46.691 2.888 93.334 8.659 139.666h-233.937c-25.463-91.37-25.463-187.959 0-279.329h233.937c-5.772 46.332-8.664 92.976-8.659 139.663z" />
<glyph unicode="&#xe915;" glyph-name="22" d="M791.274-64h-558.547c-12.345 0-24.184 4.903-32.913 13.634-8.729 8.727-13.633 20.568-13.633 32.911s4.904 24.184 13.633 32.914c8.729 8.727 20.568 13.631 32.913 13.631h558.547c12.344 0 24.181-4.903 32.911-13.631 8.73-8.73 13.634-20.571 13.634-32.914s-4.903-24.184-13.634-32.911c-8.73-8.73-20.568-13.634-32.911-13.634zM1024 727.273v-372.363c0-30.562-6.018-60.826-17.715-89.062s-28.839-53.892-50.448-75.501c-21.612-21.612-47.268-38.754-75.504-50.451-28.236-11.694-58.497-17.715-89.059-17.715h-558.547c-30.562 0-60.825 6.021-89.061 17.715-28.236 11.697-53.891 28.839-75.502 50.451-43.645 43.643-68.164 102.839-68.164 164.563v372.363c0 61.723 24.519 120.918 68.164 164.563s102.84 68.164 164.563 68.164h558.547c30.562 0 60.823-6.020 89.059-17.715s53.892-28.838 75.504-50.449c21.609-21.611 38.751-47.266 50.448-75.502s17.715-58.499 17.715-89.061zM186.182 634.181c0-12.344 4.904-24.184 13.633-32.911 8.729-8.73 20.568-13.634 32.913-13.634h279.273c12.344 0 24.184 4.903 32.911 13.634 8.73 8.727 13.634 20.568 13.634 32.911 0 12.347-4.903 24.184-13.634 32.914-8.727 8.728-20.568 13.632-32.911 13.632h-279.273c-12.345 0-24.184-4.904-32.913-13.632-8.729-8.73-13.633-20.568-13.633-32.914zM837.819 448c0 12.344-4.903 24.184-13.634 32.911-8.73 8.73-20.568 13.634-32.911 13.634h-558.547c-12.345 0-24.184-4.903-32.913-13.634-8.729-8.727-13.633-20.568-13.633-32.911s4.904-24.184 13.633-32.911c8.729-8.73 20.568-13.634 32.913-13.634h558.547c12.344 0 24.181 4.903 32.911 13.634 8.73 8.727 13.634 20.568 13.634 32.911z" />
<glyph unicode="&#xe916;" glyph-name="23" d="M956.283 825.055l49.391-740.878c2.53-38.404-10.926-76.064-37.167-104.156-26.302-28.092-63.037-44.021-101.437-44.021h-728.162c-38.402 0-75.137 15.929-101.439 44.021-26.239 28.092-39.699 65.752-37.167 104.156l49.392 740.878c4.878 72.976 65.506 129.654 138.606 129.654h629.375c73.102 0 133.731-56.677 138.608-129.654zM656.475 681.324c-27.291-57.356-85.758-97.055-153.486-97.055s-126.197 39.699-153.486 97.055c-10.928 23.091-38.587 32.908-61.678 21.918-23.091-10.928-32.907-38.587-21.979-61.678 42.107-88.657 132.494-149.903 237.143-149.903s195.034 61.247 237.143 149.903c10.926 23.091 1.111 50.75-21.982 61.678-23.089 10.99-50.749 1.173-61.675-21.918z" />
<glyph unicode="&#xe917;" glyph-name="24" horiz-adv-x="936" d="M744.726 960c-102.821 0-186.181-83.357-186.181-186.182 0-17.548 2.431-34.53 6.969-50.626l-247.053-144.173c-33.741 34.061-80.546 55.161-132.279 55.161-102.825 0-186.182-83.357-186.182-186.181s83.357-186.181 186.182-186.181c51.743 0 98.556 21.106 132.3 55.182l247.088-143.986c-4.576-16.156-7.025-33.21-7.025-50.834 0-102.821 83.359-186.181 186.181-186.181 102.824 0 186.184 83.359 186.184 186.181 0 102.824-83.359 186.184-186.184 186.184-51.653 0-98.395-21.039-132.128-55.012l-247.194 144.048c4.535 16.086 6.96 33.061 6.96 50.6 0 17.548-2.428 34.532-6.966 50.627l247.050 144.173c33.742-34.064 80.545-55.164 132.277-55.164 102.824 0 186.184 83.357 186.184 186.183s-83.359 186.182-186.184 186.182z" />
<glyph unicode="&#xe918;" glyph-name="25" horiz-adv-x="1195" d="M468.777 303.845l-19.763-277.968c28.276 0 40.523 12.148 55.207 26.733l132.56 126.686 274.681-201.155c50.377-28.078 85.869-13.292 99.458 46.343l180.299 844.848 0.051 0.050c15.978 74.469-26.931 103.59-76.015 85.321l-1059.793-405.747c-72.329-28.078-71.234-68.396-12.296-86.668l270.947-84.275 629.355 393.802c29.617 19.613 56.549 8.761 34.396-10.852l-509.088-457.119z" />
<glyph unicode="&#xe919;" glyph-name="26" horiz-adv-x="1053" d="M713.599 658.037c-36.931 171.531-115.694 280.050-188.542 280.050s-151.611-108.519-188.542-280.050h377.084zM315.015 448c-0.009-46.832 3.113-93.611 9.348-140.025h401.379c6.235 46.414 9.356 93.193 9.348 140.025 0.009 46.832-3.113 93.611-9.348 140.025h-401.379c-6.235-46.414-9.356-93.193-9.348-140.025zM336.516 237.963c36.931-171.529 115.694-280.049 188.542-280.049s151.611 108.521 188.542 280.049h-377.084zM785.297 658.037h220.54c-33.137 75.411-83.485 142.008-147.008 194.447-63.52 52.439-138.448 89.263-218.77 107.516 66.405-58.425 118.494-166.454 145.238-301.963zM1031.004 588.025h-234.54c5.775-46.452 8.663-93.216 8.645-140.025 0.006-46.809-2.894-93.573-8.681-140.025h234.54c25.53 91.604 25.565 188.445 0.035 280.049zM640.059-64c80.334 18.245 155.276 55.062 218.811 107.502s113.892 119.041 147.038 194.461h-220.54c-26.814-135.507-78.904-243.536-145.309-301.963zM264.825 237.963h-220.539c33.144-75.419 83.503-142.020 147.038-194.461s138.475-89.258 218.812-107.502c-66.478 58.427-118.566 166.456-145.311 301.963zM410.062 960c-80.334-18.243-155.276-55.062-218.81-107.502s-113.894-119.041-147.038-194.461h220.539c26.815 135.509 78.904 243.538 145.309 301.963zM245.006 448c-0.004 46.809 2.895 93.573 8.681 140.025h-234.541c-25.529-91.604-25.529-188.445 0-280.049h234.541c-5.786 46.452-8.686 93.216-8.681 140.025z" />
<glyph unicode="&#xe91a;" glyph-name="27" horiz-adv-x="878" d="M249.648 525.839c9.329-60.638 56.186-137.813 133.147-164.952 31.592-11.024 66.15-11.238 97.742 0.214 75.691 27.35 124.033 104.313 133.573 164.738 10.176 0.848 23.534 15.053 37.949 66.15 19.719 69.755-1.27 80.144-19.082 78.447 3.394 9.541 5.936 19.294 7.633 28.623 30.109 180.853-58.941 187.001-58.941 187.001s-14.842 28.411-53.64 49.825c-26.080 15.477-62.335 27.351-110.039 23.322-15.477-0.636-30.106-3.816-43.889-8.269-17.598-5.937-33.71-14.629-48.339-24.806-17.812-11.237-34.772-25.23-49.614-41.132-23.534-24.17-44.524-55.337-53.641-94.137-7.633-29.047-5.937-59.366 0.424-92.017 1.696-9.541 4.241-19.082 7.633-28.623-17.81 1.696-38.8-8.694-19.082-78.446 14.629-50.887 27.987-65.091 38.164-65.94zM781.602 288.59c-108.342 27.563-196.33 89.471-196.33 89.471l-81.627-258.238-0.211 0.635-11.238-34.772-36.255 102.83c89.047 124.243-18.022 122.971-23.959 122.76-5.936 0.211-113.006 1.483-23.959-122.76l-36.255-102.83-11.238 34.772-0.211-0.635-12.935 40.919-68.905 217.319c0 0-87.988-61.908-196.33-89.471-80.78-20.565-84.596-113.854-81.416-159.864 0 0 4.664-62.546 9.329-90.109 0 0 157.743-102.403 421.919-102.617 264.177 0 421.92 102.617 421.92 102.617 4.664 27.563 9.327 90.109 9.327 90.109 2.97 46.010-0.848 139.299-81.627 159.864z" />
<glyph unicode="&#xe91b;" glyph-name="28" horiz-adv-x="745" d="M352.885 936.727c-203.823 0-352.908-202.752-352.908-369.85 0-80.756 8.704-157.417 56.972-221.743l273.129-368.081c0.698-0.884 1.769-1.257 2.513-2.095 2.726-3.128 6.124-5.595 9.941-7.219s7.951-2.365 12.094-2.164c4.143 0.2 8.187 1.341 11.827 3.328s6.784 4.776 9.193 8.15c88.681 118.379 198.162 246.691 282.409 368.081 63.376 102.865 64.54 144.384 64.54 221.743 0 167.098-165.888 369.85-369.71 369.85zM352.792 296.82c-148.573 0-251.811 121.391-251.811 269.917 0 148.62 103.284 270.057 251.811 270.057s269.917-121.437 269.917-269.964c0-148.62-121.391-270.010-269.917-270.010z" />
<glyph unicode="&#xe91c;" glyph-name="29" horiz-adv-x="1317" d="M1150.179 960h-983.854c-92.124 0-166.36-88.697-166.36-198.768v-626.466c0-110.065 74.236-198.766 166.36-198.766h983.854c92.123 0 166.356 88.7 166.356 198.766v626.466c0 110.070-74.233 198.768-166.356 198.768zM1124.235 831.762l-465.985-301.595-465.987 301.595h931.972zM1150.179 64.234h-983.854c-32.199 0-59.031 32.066-59.031 70.532v613.642l517.864-350.753c9.838-8.549 21.465-13.893 33.093-13.893s23.255 4.275 33.093 13.893l517.862 350.753v-613.642c0-39.541-26.829-70.532-59.026-70.532z" />
<glyph unicode="&#xe91d;" glyph-name="30" d="M970.45 261.131l-103.041 84.415c-67.218 54.967-171.234 49.815-232.567-11.533l-4.171-4.171c-10.305-10.305-26.985-10.305-37.047 0l-198.959 199.009c-10.059 10.061-10.304 26.256-0.491 36.562 0.245 0.246 0.245 0.491 0.491 0.491l-0.491-0.491c0.245 0.246 0.245 0.246 0.491 0.491 60.841 61.592 66.729 166.127 13.493 233.608l-83.656 105.762c-53.972 67.972-147.197 73.371-208.529 12.024l-15.455-15.46c-108.435-108.706-134.195-304.77-52.5-435.071 0 0 48.084-111.407 210.001-273.361s273.295-210.049 273.295-210.049c131.497-79.506 326.288-55.954 434.967 52.758l14.719 14.719c61.090 61.106 56.428 155.33-10.547 210.297zM906.908 124.696l-14.719-14.724c-74.58-74.596-216.382-91.772-306.661-37.053l-6.133 3.681-6.624 2.948c-8.095 3.433-28.456 14.476-59.124 35.085-54.463 36.568-115.795 86.868-181.788 152.878s-116.285 127.111-152.84 181.588c-20.607 30.673-31.647 51.040-35.082 59.138l-3.189 7.361-4.17 6.871c-54.954 87.603-37.045 230.173 38.026 305.507l15.455 15.459c16.928 16.932 37.29 15.95 52.255-2.945l83.657-105.761c20.608-26.011 17.909-71.408-5.888-95.21-50.538-51.286-50.292-133.735 0.491-184.531l198.961-199.010c51.026-51.038 133.948-51.038 185.224 0l4.171 4.171c23.304 23.315 66.727 25.277 92.241 4.419l103.036-84.415c19.138-15.705 20.119-38.034 2.7-55.458z" />
<glyph unicode="&#xe91e;" glyph-name="31" d="M0 960h227.556v-227.556h-227.556v227.556zM0 561.778h227.556v-227.556h-227.556v227.556zM227.556 163.556h-227.556v-227.556h227.556v227.556zM398.222 960h227.556v-227.556h-227.556v227.556zM625.778 561.778h-227.556v-227.556h227.556v227.556zM398.222 163.556h227.556v-227.556h-227.556v227.556zM1024 960h-227.556v-227.556h227.556v227.556zM796.444 561.778h227.556v-227.556h-227.556v227.556zM1024 163.556h-227.556v-227.556h227.556v227.556z" />
<glyph unicode="&#xe91f;" d="M268.8 806.4c0-63.623-51.577-115.2-115.2-115.2s-115.2 51.577-115.2 115.2c0 63.623 51.577 115.2 115.2 115.2s115.2-51.577 115.2-115.2z" />
<glyph unicode="&#xe920;" d="M268.8 448c0-63.623-51.577-115.2-115.2-115.2s-115.2 51.577-115.2 115.2c0 63.623 51.577 115.2 115.2 115.2s115.2-51.577 115.2-115.2z" />
<glyph unicode="&#xe921;" d="M268.8 89.6c0-63.623-51.577-115.2-115.2-115.2s-115.2 51.577-115.2 115.2c0 63.623 51.577 115.2 115.2 115.2s115.2-51.577 115.2-115.2z" />
<glyph unicode="&#xe922;" d="M409.6 857.6h614.4v-102.4h-614.4v102.4z" />
<glyph unicode="&#xe923;" d="M409.6 499.2h614.4v-102.4h-614.4v102.4z" />
<glyph unicode="&#xe924;" d="M409.6 140.8h614.4v-102.4h-614.4v102.4z" />
<glyph unicode="&#xe925;" glyph-name="33" horiz-adv-x="1084" d="M770.825 960c-86.685 0-169.413-39.007-228.707-107.268-87.812 101.478-224.189 134.39-343.906 83.499-119.435-50.891-198.211-175.834-198.211-314.491 0-336.736 503.435-667.38 525.176-680.481 10.73-7.011 24.282-7.011 35.012 0 20.612 13.101 524.047 343.745 524.047 680.481-0.283 186.805-140.33 337.956-313.41 338.26zM542.118 15.92c-87.529 60.338-474.353 342.22-474.353 605.819 0 115.496 69.459 217.889 171.671 252.629s213.459-5.79 275.011-100.259c6.212-9.751 16.659-15.542 27.671-15.542s21.459 5.79 27.671 15.542c61.55 94.774 172.798 135.304 275.011 100.564s171.671-137.133 171.671-252.933c0-263.6-386.825-545.482-474.353-605.819z" />
<glyph unicode="&#xe926;" glyph-name="34" horiz-adv-x="1092" d="M728.637 816.796c-0.212 0-0.423 0-0.423 0h-254.294l58.88 59.649c17.706 17.938 17.706 47.114 0 65.268-17.707 17.938-46.507 17.938-64.427 0l-136.533-138.316c-1.067-1.081-2.133-2.161-2.987-3.458-0.427-0.433-0.853-1.081-1.28-1.729s-1.067-1.296-1.494-1.945c-0.427-0.649-0.853-1.297-1.28-1.945s-0.853-1.297-1.066-1.946c-0.427-0.648-0.64-1.296-1.067-2.161-0.213-0.649-0.64-1.297-0.853-1.946s-0.427-1.296-0.64-2.161c-0.214-0.648-0.64-1.513-0.853-2.161s-0.427-1.297-0.427-2.161c-0.214-0.864-0.427-1.513-0.64-2.378s-0.213-1.513-0.427-2.377c0-0.649-0.213-1.296-0.213-1.945-0.214-1.513-0.214-3.026-0.214-4.538s0-3.026 0.214-4.539c0-0.648 0.213-1.296 0.213-1.945 0.214-0.864 0.214-1.729 0.427-2.377 0.214-0.864 0.427-1.513 0.64-2.378 0.213-0.648 0.427-1.296 0.427-2.161 0.213-0.649 0.427-1.513 0.853-2.161 0.213-0.649 0.427-1.297 0.64-2.161 0.214-0.649 0.64-1.296 0.853-1.945 0.427-0.649 0.64-1.513 1.067-2.161s0.64-1.297 1.066-1.945c0.427-0.649 0.853-1.297 1.28-1.945s0.853-1.297 1.494-1.946c0.427-0.648 0.853-1.081 1.28-1.729 0.853-1.081 1.92-2.378 2.987-3.458l136.533-138.316c17.706-17.938 46.507-17.938 64.427 0 17.706 17.938 17.706 47.114 0 65.268l-58.88 59.649h253.864c0.218 0 0.218 0 0.43 0 151.040 0 273.067-123.62 273.067-276.632 0-67.213-26.453-130.32-72.745-177.22-17.708-17.934-17.708-47.111 0-65.27 17.702-17.934 46.503-17.934 64.423 0 62.935 64.41 99.198 150.854 99.198 242.705 0 203.801-162.557 368.699-363.52 368.916zM773.12 131.714c-0.212 0.86-0.212 1.727-0.423 2.376-0.218 0.867-0.43 1.516-0.642 2.376-0.218 0.649-0.43 1.516-0.43 2.164-0.212 0.649-0.423 1.509-0.853 2.157-0.212 0.649-0.423 1.297-0.853 2.164-0.212 0.649-0.635 1.297-0.853 1.946-0.423 0.649-0.635 1.509-1.065 2.157s-0.642 1.297-1.065 1.946c-0.43 0.649-0.853 1.297-1.283 1.946-0.423 0.649-0.853 1.297-1.488 1.946-0.43 0.649-0.853 1.079-1.283 1.727-0.853 1.085-1.918 2.164-2.983 3.243l-136.537 138.319c-17.706 17.938-46.507 17.938-64.427 0-17.707-17.938-17.707-47.114 0-65.266l58.88-59.651h-253.867c-0.214 0-0.214 0-0.427 0-151.040 0-273.067 123.621-273.067 276.634 0 67.213 26.453 130.32 72.746 177.218 17.707 17.938 17.707 47.114 0 65.268-17.706 17.938-46.507 17.938-64.427 0-62.506-63.971-98.773-150.419-98.773-242.486 0-203.8 162.56-368.486 363.52-368.916 0.213 0 0.427 0 0.427 0h254.293l-58.88-59.651c-17.706-17.934-17.706-47.111 0-65.263 17.706-17.94 46.507-17.94 64.427 0l136.533 138.315c1.065 1.079 2.13 2.157 2.983 3.454 0.43 0.437 0.853 1.085 1.283 1.734s1.065 1.297 1.495 1.946c0.423 0.649 0.853 1.297 1.277 1.946 0.43 0.649 0.853 1.29 1.072 1.939 0.423 0.649 0.635 1.297 1.065 2.164 0.212 0.649 0.635 1.297 0.853 1.946 0.212 0.649 0.423 1.297 0.853 2.164 0.212 0.649 0.635 1.509 0.853 2.157 0.212 0.649 0.423 1.297 0.423 2.164 0.218 0.86 0.43 1.509 0.642 2.376s0.212 1.727 0.43 2.376c0 0.649 0.212 1.297 0.212 1.946 0.212 1.516 0.212 3.024 0.212 4.54s0 3.024-0.212 4.54c-0.43 0.649-0.43 1.297-0.642 1.946z" />
<glyph unicode="&#xe927;" glyph-name="35" horiz-adv-x="602" d="M517.113 960l85.185-85.185-425.904-425.904 425.959-425.961-85.186-85.185-511.168 511.122 511.113 511.113z" />
<glyph unicode="&#xe928;" glyph-name="36" horiz-adv-x="602" d="M85.24 960l-85.186-85.185 425.905-425.904-425.959-425.961 85.186-85.185 511.168 511.122-511.113 511.113z" />
<glyph unicode="&#xe929;" glyph-name="37" horiz-adv-x="951" d="M585.143 447.964l365.714 365.714-77.583 77.58-365.711-365.714-361.277 361.277-77.58-77.58 361.277-361.277-358.363-358.364 77.579-77.575 358.363 358.36 362.8-362.8 77.583 77.583-362.803 362.797z" />
<glyph unicode="&#xe92a;" glyph-name="38" horiz-adv-x="1152" d="M650.065 143.579l415.935 720.421-166.276 96-415.936-720.421-387.788 223.89-96-166.277 554.257-320 96 166.277-0.192 0.11z" />
<glyph unicode="&#xe92b;" glyph-name="39" d="M790.95 845.010h-20.239v63.428c0 31.322-21.263 51.622-51.622 51.622-30.419 0-51.682-20.299-51.682-51.622v-63.428h-336.233v63.428c0.12 21.504 0.12 51.563-60.115 51.622-30.118 0-43.189-20.299-43.189-51.622v-63.428h-46.622c-98.184 0-181.248-70.957-181.248-183.718v-532.178c0-98.063 83.064-180.947 181.248-180.947h609.702c98.244 0 181.308 82.884 181.308 180.947v532.178c0 112.76-83.064 183.718-181.308 183.718zM181.248 753.813h609.702c41.562 0 78.005-36.382 78.005-92.521v-57.163h-765.651v57.163c0 56.139 36.442 92.521 77.944 92.521zM790.95 52.254h-609.702c-41.502 0-77.944 34.394-77.944 76.86v372.012h764.627v-372.012c0-42.466-35.418-76.86-76.981-76.86zM240.941 417.882h180.706v-90.353h-180.706v90.353zM240.941 237.176h180.706v-90.353h-180.706v90.353zM542.118 417.882h180.706v-90.353h-180.706v90.353zM542.118 237.176h180.706v-90.353h-180.706v90.353z" />
<glyph unicode="&#xe92c;" glyph-name="40" horiz-adv-x="887" d="M739.401 833.2c-81.802 81.8-190.601 126.8-306.201 126.8s-224.6-45-306.4-126.8c-81.8-81.8-126.8-190.599-126.8-306.199 0-234 221.2-428.601 340.2-533.201 16.6-14.6 30.8-26.999 42.2-37.599 14.199-13.401 32.6-20 50.8-20s36.6 6.599 50.8 20c11.401 10.6 25.6 23.199 42.2 37.599 118.8 104.6 340.2 299.201 340.2 533.201-0.2 115.6-45.199 224.4-126.999 306.199zM486.4 38.6c-16.8-14.8-31.4-27.6-43.399-39.001-5.6-5.2-14.199-5.2-19.602 0-11.999 11.2-26.599 24-43.399 39.001-112.001 98.4-320 281.4-320 488.4 0 205.6 167.4 373 373.2 373s373.2-167.4 373.2-373.2c-0.2-206.8-208.2-389.8-320-488.2zM433.2 734.2c-105.199 0-190.801-85.601-190.801-190.8 0-105.201 85.602-190.801 190.801-190.801 105.201 0 190.801 85.399 190.801 190.601 0 105.199-85.6 191-190.801 191zM433.2 412.399c-72.199 0-130.799 58.8-130.799 130.801s58.798 130.799 130.799 130.799c72.001 0 130.801-58.798 130.801-130.799s-58.8-130.801-130.801-130.801z" />
<glyph unicode="&#xe92d;" glyph-name="41" d="M483.599 951l-459.399-325.999c-15.2-10.801-24.2-28.201-24.2-46.802v-573.599c0-31.601 25.6-57.4 57.4-57.4h909.2c31.601 0 57.4 25.6 57.4 57.4v573.599c0 18.601-9.001 36.001-24.2 46.802l-459.4 325.999c-17.001 12-39.8 12-56.801 0zM313.6 313.8l-253.6-262.4v476.401l253.6-214.001zM359.601 275l131-110.4c12.398-10.401 30.6-10.401 43 0l130.998 110.4 258.801-267.802h-822.6l258.801 267.802zM710.4 313.8l253.599 214.001v-476.401l-253.599 262.4zM945.001 590.4l-419.802-354.399c-7.598-6.4-18.598-6.4-26.199 0l-420 354.399 414 293.6c11.4 8 26.601 8 38.001 0l414.001-293.6z" />
<glyph unicode="&#xe92e;" glyph-name="42" d="M951.043 330.102l-148.055 36.879c-48.637 12.027-99.95-5.076-131.218-44.362l-154.734-193.487c-133.089 79.373-244.531 190.548-323.903 323.904l193.486 154.734c39.017 31.268 56.389 82.58 44.362 131.218l-37.148 148.054c-10.688 42.759-49.172 72.958-93.268 72.958h-204.175c-26.725 0-52.38-11.224-70.553-30.733s-27.259-45.432-25.656-71.889c17.104-238.382 119.726-462.869 288.892-632.036s393.654-271.79 632.038-288.893c2.138-0.266 4.541-0.266 6.682-0.266 53.181 0.266 96.207 43.292 96.207 96.476v203.907c0 44.365-30.198 82.847-72.957 93.537zM72.605 885.706c6.147 6.681 14.698 10.423 23.785 10.423h203.909c14.7 0 27.525-9.888 31.002-24.319l37.146-148.054c6.147-24.319-2.673-49.976-22.18-65.743l-185.202-148.321c-55.587 109.837-88.458 229.564-97.010 352.497-0.534 8.552 2.405 17.104 8.552 23.518zM959.862 32.658c0-9.088-3.743-17.638-10.424-23.785-6.413-5.88-14.966-9.088-23.785-8.553-122.665 8.553-242.391 41.423-352.228 97.011l148.321 185.201c15.767 19.51 41.423 28.060 65.741 22.182l148.055-37.148c14.164-3.474 24.32-16.302 24.32-31.002v-203.907zM544.069 736.848c141.64-0.267 256.289-114.917 256.556-256.557 0-17.638 14.433-32.069 32.072-32.069 17.636 0 32.069 14.431 32.069 32.069-0.269 176.916-143.78 320.428-320.696 320.696-17.638 0-32.069-14.431-32.069-32.069s14.164-32.070 32.069-32.070zM544.069 865.13c212.462-0.267 384.568-172.373 384.835-384.835 0-17.636 14.431-32.069 32.069-32.069s32.069 14.433 32.069 32.069c-0.266 247.738-201.236 448.707-448.973 448.974-17.638 0-32.069-14.431-32.069-32.069s14.164-32.070 32.069-32.070z" />
</font>
</defs>
</svg>
